<mxfile host="app.diagrams.net" modified="2022-12-05T08:50:02.653Z" agent="5.0 (Macintosh; Intel Mac OS X 10_14_6) AppleWebKit/537.36 (KHTML, like Gecko) Chrome/107.0.0.0 Safari/537.36" version="20.6.0" etag="f6_G3ozaH6bOzhSsX9fE" type="github">
  <diagram id="_Vs_0Y8FpCrknEBkXIEZ" name="第 1 页">
    <mxGraphModel dx="1577" dy="890" grid="1" gridSize="10" guides="1" tooltips="1" connect="1" arrows="1" fold="1" page="1" pageScale="1" pageWidth="827" pageHeight="1169" math="0" shadow="0">
      <root>
        <mxCell id="0" />
        <mxCell id="1" parent="0" />
        <mxCell id="BWcsRzhBrhYCPuVQW7_F-1" style="edgeStyle=orthogonalEdgeStyle;rounded=0;orthogonalLoop=1;jettySize=auto;html=1;fontSize=15;strokeWidth=3;sketch=1;" edge="1" parent="1" source="BWcsRzhBrhYCPuVQW7_F-2">
          <mxGeometry relative="1" as="geometry">
            <mxPoint x="223" y="1000" as="targetPoint" />
          </mxGeometry>
        </mxCell>
        <mxCell id="BWcsRzhBrhYCPuVQW7_F-2" value="协调者" style="rounded=1;whiteSpace=wrap;html=1;strokeWidth=2;fillWeight=4;hachureGap=8;hachureAngle=45;fillColor=#d5e8d4;sketch=0;strokeColor=#82b366;fontSize=15;fontStyle=1" vertex="1" parent="1">
          <mxGeometry x="163" y="30" width="120" height="60" as="geometry" />
        </mxCell>
        <mxCell id="BWcsRzhBrhYCPuVQW7_F-3" style="edgeStyle=orthogonalEdgeStyle;rounded=0;orthogonalLoop=1;jettySize=auto;html=1;fontSize=15;strokeWidth=3;sketch=1;" edge="1" parent="1" source="BWcsRzhBrhYCPuVQW7_F-4">
          <mxGeometry relative="1" as="geometry">
            <mxPoint x="423" y="1000" as="targetPoint" />
          </mxGeometry>
        </mxCell>
        <mxCell id="BWcsRzhBrhYCPuVQW7_F-4" value="参与者A" style="rounded=1;whiteSpace=wrap;html=1;strokeWidth=2;fillWeight=4;hachureGap=8;hachureAngle=45;fillColor=#dae8fc;sketch=0;strokeColor=#6c8ebf;fontSize=15;fontStyle=1" vertex="1" parent="1">
          <mxGeometry x="363" y="30" width="120" height="60" as="geometry" />
        </mxCell>
        <mxCell id="BWcsRzhBrhYCPuVQW7_F-5" style="edgeStyle=orthogonalEdgeStyle;rounded=0;orthogonalLoop=1;jettySize=auto;html=1;fontSize=15;strokeWidth=3;sketch=1;" edge="1" parent="1" source="BWcsRzhBrhYCPuVQW7_F-6">
          <mxGeometry relative="1" as="geometry">
            <mxPoint x="623" y="1000" as="targetPoint" />
          </mxGeometry>
        </mxCell>
        <mxCell id="BWcsRzhBrhYCPuVQW7_F-6" value="参与者B" style="rounded=1;whiteSpace=wrap;html=1;strokeWidth=2;fillWeight=4;hachureGap=8;hachureAngle=45;fillColor=#dae8fc;sketch=0;strokeColor=#6c8ebf;fontSize=15;fontStyle=1" vertex="1" parent="1">
          <mxGeometry x="563" y="30" width="120" height="60" as="geometry" />
        </mxCell>
        <mxCell id="BWcsRzhBrhYCPuVQW7_F-7" value="" style="endArrow=classic;html=1;rounded=0;sketch=1;strokeWidth=3;fontSize=14;fillColor=#fff2cc;strokeColor=#d6b656;" edge="1" parent="1">
          <mxGeometry width="50" height="50" relative="1" as="geometry">
            <mxPoint x="223.00000000000045" y="179.99999999999955" as="sourcePoint" />
            <mxPoint x="423.00000000000045" y="179.99999999999955" as="targetPoint" />
          </mxGeometry>
        </mxCell>
        <mxCell id="BWcsRzhBrhYCPuVQW7_F-8" value="" style="endArrow=classic;html=1;rounded=0;sketch=1;strokeWidth=3;fontSize=15;fillColor=#fff2cc;strokeColor=#d6b656;" edge="1" parent="1">
          <mxGeometry width="50" height="50" relative="1" as="geometry">
            <mxPoint x="423.00000000000045" y="319.99999999999955" as="sourcePoint" />
            <mxPoint x="223.00000000000045" y="319.99999999999955" as="targetPoint" />
          </mxGeometry>
        </mxCell>
        <mxCell id="BWcsRzhBrhYCPuVQW7_F-9" value="" style="endArrow=classic;html=1;rounded=0;sketch=1;strokeWidth=3;fontSize=14;fillColor=#fff2cc;strokeColor=#d6b656;" edge="1" parent="1">
          <mxGeometry width="50" height="50" relative="1" as="geometry">
            <mxPoint x="423" y="219.99999999999955" as="sourcePoint" />
            <mxPoint x="423" y="300" as="targetPoint" />
            <Array as="points">
              <mxPoint x="443" y="220" />
              <mxPoint x="443" y="300" />
            </Array>
          </mxGeometry>
        </mxCell>
        <mxCell id="BWcsRzhBrhYCPuVQW7_F-10" value="" style="endArrow=classic;html=1;rounded=0;sketch=1;strokeWidth=3;fontSize=14;fillColor=#fff2cc;strokeColor=#d6b656;" edge="1" parent="1">
          <mxGeometry width="50" height="50" relative="1" as="geometry">
            <mxPoint x="223" y="199.99999999999955" as="sourcePoint" />
            <mxPoint x="623" y="200" as="targetPoint" />
          </mxGeometry>
        </mxCell>
        <mxCell id="BWcsRzhBrhYCPuVQW7_F-11" value="" style="endArrow=classic;html=1;rounded=0;sketch=1;strokeWidth=3;fontSize=15;fillColor=#fff2cc;strokeColor=#d6b656;" edge="1" parent="1">
          <mxGeometry width="50" height="50" relative="1" as="geometry">
            <mxPoint x="623" y="340" as="sourcePoint" />
            <mxPoint x="223" y="339.99999999999955" as="targetPoint" />
          </mxGeometry>
        </mxCell>
        <mxCell id="BWcsRzhBrhYCPuVQW7_F-12" value="" style="endArrow=classic;html=1;rounded=0;sketch=1;strokeWidth=3;fontSize=14;fillColor=#fff2cc;strokeColor=#d6b656;" edge="1" parent="1">
          <mxGeometry width="50" height="50" relative="1" as="geometry">
            <mxPoint x="623" y="239.99999999999955" as="sourcePoint" />
            <mxPoint x="623" y="320" as="targetPoint" />
            <Array as="points">
              <mxPoint x="643" y="240" />
              <mxPoint x="643" y="320" />
            </Array>
          </mxGeometry>
        </mxCell>
        <mxCell id="BWcsRzhBrhYCPuVQW7_F-13" value="" style="endArrow=classic;html=1;rounded=0;sketch=1;strokeWidth=3;fontSize=14;fillColor=#d5e8d4;strokeColor=#82b366;" edge="1" parent="1">
          <mxGeometry width="50" height="50" relative="1" as="geometry">
            <mxPoint x="223" y="658.8899999999995" as="sourcePoint" />
            <mxPoint x="423" y="658.8899999999995" as="targetPoint" />
          </mxGeometry>
        </mxCell>
        <mxCell id="BWcsRzhBrhYCPuVQW7_F-14" value="" style="endArrow=classic;html=1;rounded=0;sketch=1;strokeWidth=3;fontSize=15;fillColor=#d5e8d4;strokeColor=#82b366;" edge="1" parent="1">
          <mxGeometry width="50" height="50" relative="1" as="geometry">
            <mxPoint x="423" y="798.8899999999995" as="sourcePoint" />
            <mxPoint x="223" y="798.8899999999995" as="targetPoint" />
          </mxGeometry>
        </mxCell>
        <mxCell id="BWcsRzhBrhYCPuVQW7_F-15" value="" style="endArrow=classic;html=1;rounded=0;sketch=1;strokeWidth=3;fontSize=14;fillColor=#d5e8d4;strokeColor=#82b366;" edge="1" parent="1">
          <mxGeometry width="50" height="50" relative="1" as="geometry">
            <mxPoint x="423" y="698.8899999999995" as="sourcePoint" />
            <mxPoint x="423" y="778.89" as="targetPoint" />
            <Array as="points">
              <mxPoint x="443" y="698.89" />
              <mxPoint x="443" y="778.89" />
            </Array>
          </mxGeometry>
        </mxCell>
        <mxCell id="BWcsRzhBrhYCPuVQW7_F-16" value="" style="endArrow=classic;html=1;rounded=0;sketch=1;strokeWidth=3;fontSize=14;fillColor=#d5e8d4;strokeColor=#82b366;" edge="1" parent="1">
          <mxGeometry width="50" height="50" relative="1" as="geometry">
            <mxPoint x="223" y="678.8899999999995" as="sourcePoint" />
            <mxPoint x="623" y="678.89" as="targetPoint" />
          </mxGeometry>
        </mxCell>
        <mxCell id="BWcsRzhBrhYCPuVQW7_F-17" value="" style="endArrow=classic;html=1;rounded=0;sketch=1;strokeWidth=3;fontSize=15;fillColor=#d5e8d4;strokeColor=#82b366;" edge="1" parent="1">
          <mxGeometry width="50" height="50" relative="1" as="geometry">
            <mxPoint x="623" y="818.89" as="sourcePoint" />
            <mxPoint x="223" y="818.8899999999995" as="targetPoint" />
          </mxGeometry>
        </mxCell>
        <mxCell id="BWcsRzhBrhYCPuVQW7_F-18" value="" style="endArrow=classic;html=1;rounded=0;sketch=1;strokeWidth=3;fontSize=14;fillColor=#d5e8d4;strokeColor=#82b366;" edge="1" parent="1">
          <mxGeometry width="50" height="50" relative="1" as="geometry">
            <mxPoint x="623" y="718.8899999999995" as="sourcePoint" />
            <mxPoint x="623" y="798.89" as="targetPoint" />
            <Array as="points">
              <mxPoint x="643" y="718.89" />
              <mxPoint x="643" y="798.89" />
            </Array>
          </mxGeometry>
        </mxCell>
        <mxCell id="BWcsRzhBrhYCPuVQW7_F-19" value="" style="shape=curlyBracket;whiteSpace=wrap;html=1;rounded=1;labelPosition=left;verticalLabelPosition=middle;align=right;verticalAlign=middle;" vertex="1" parent="1">
          <mxGeometry x="140" y="160" width="20" height="200" as="geometry" />
        </mxCell>
        <mxCell id="BWcsRzhBrhYCPuVQW7_F-20" value="canCommit" style="text;strokeColor=none;fillColor=none;html=1;fontSize=20;fontStyle=1;verticalAlign=middle;align=center;" vertex="1" parent="1">
          <mxGeometry x="23" y="240" width="100" height="40" as="geometry" />
        </mxCell>
        <mxCell id="BWcsRzhBrhYCPuVQW7_F-21" value="" style="shape=curlyBracket;whiteSpace=wrap;html=1;rounded=1;labelPosition=left;verticalLabelPosition=middle;align=right;verticalAlign=middle;" vertex="1" parent="1">
          <mxGeometry x="140" y="640" width="20" height="200" as="geometry" />
        </mxCell>
        <mxCell id="BWcsRzhBrhYCPuVQW7_F-22" value="&lt;font style=&quot;font-size: 20px;&quot;&gt;doCommit&lt;/font&gt;" style="text;strokeColor=none;fillColor=none;html=1;fontSize=24;fontStyle=1;verticalAlign=middle;align=center;" vertex="1" parent="1">
          <mxGeometry x="23" y="720" width="100" height="40" as="geometry" />
        </mxCell>
        <mxCell id="BWcsRzhBrhYCPuVQW7_F-24" value="事务提交" style="text;strokeColor=#82b366;fillColor=#d5e8d4;html=1;fontSize=15;fontStyle=1;verticalAlign=middle;align=center;" vertex="1" parent="1">
          <mxGeometry x="643" y="738.89" width="80" height="40" as="geometry" />
        </mxCell>
        <mxCell id="BWcsRzhBrhYCPuVQW7_F-25" value="事务提交" style="text;html=1;fontSize=15;fontStyle=1;verticalAlign=middle;align=center;fillColor=#d5e8d4;strokeColor=#82b366;" vertex="1" parent="1">
          <mxGeometry x="443" y="720" width="80" height="40" as="geometry" />
        </mxCell>
        <mxCell id="BWcsRzhBrhYCPuVQW7_F-26" value="判断是否可以执行&lt;br&gt;（未执行）" style="text;html=1;fontSize=15;fontStyle=1;verticalAlign=middle;align=center;labelBackgroundColor=none;fillColor=#fff2cc;strokeColor=#d6b656;" vertex="1" parent="1">
          <mxGeometry x="443" y="240" width="137" height="40" as="geometry" />
        </mxCell>
        <mxCell id="BWcsRzhBrhYCPuVQW7_F-27" value="&lt;font style=&quot;font-size: 15px;&quot;&gt;全部承诺可以执行&lt;/font&gt;" style="text;strokeColor=#d6b656;fillColor=#fff2cc;html=1;fontSize=20;fontStyle=1;verticalAlign=middle;align=center;labelBackgroundColor=none;" vertex="1" parent="1">
          <mxGeometry x="223" y="360" width="137" height="40" as="geometry" />
        </mxCell>
        <mxCell id="BWcsRzhBrhYCPuVQW7_F-28" value="" style="endArrow=classic;html=1;rounded=0;sketch=1;strokeWidth=3;fontSize=14;fillColor=#dae8fc;strokeColor=#6c8ebf;" edge="1" parent="1">
          <mxGeometry width="50" height="50" relative="1" as="geometry">
            <mxPoint x="223" y="419.99999999999955" as="sourcePoint" />
            <mxPoint x="423" y="419.99999999999955" as="targetPoint" />
          </mxGeometry>
        </mxCell>
        <mxCell id="BWcsRzhBrhYCPuVQW7_F-29" value="" style="endArrow=classic;html=1;rounded=0;sketch=1;strokeWidth=3;fontSize=15;fillColor=#dae8fc;strokeColor=#6c8ebf;" edge="1" parent="1">
          <mxGeometry width="50" height="50" relative="1" as="geometry">
            <mxPoint x="423" y="559.9999999999998" as="sourcePoint" />
            <mxPoint x="223" y="559.9999999999998" as="targetPoint" />
          </mxGeometry>
        </mxCell>
        <mxCell id="BWcsRzhBrhYCPuVQW7_F-30" value="" style="endArrow=classic;html=1;rounded=0;sketch=1;strokeWidth=3;fontSize=14;fillColor=#dae8fc;strokeColor=#6c8ebf;" edge="1" parent="1">
          <mxGeometry width="50" height="50" relative="1" as="geometry">
            <mxPoint x="423" y="459.99999999999955" as="sourcePoint" />
            <mxPoint x="423" y="540" as="targetPoint" />
            <Array as="points">
              <mxPoint x="443" y="460" />
              <mxPoint x="443" y="540" />
            </Array>
          </mxGeometry>
        </mxCell>
        <mxCell id="BWcsRzhBrhYCPuVQW7_F-31" value="" style="endArrow=classic;html=1;rounded=0;sketch=1;strokeWidth=3;fontSize=14;fillColor=#dae8fc;strokeColor=#6c8ebf;" edge="1" parent="1">
          <mxGeometry width="50" height="50" relative="1" as="geometry">
            <mxPoint x="223" y="439.99999999999955" as="sourcePoint" />
            <mxPoint x="623" y="440" as="targetPoint" />
          </mxGeometry>
        </mxCell>
        <mxCell id="BWcsRzhBrhYCPuVQW7_F-32" value="" style="endArrow=classic;html=1;rounded=0;sketch=1;strokeWidth=3;fontSize=15;fillColor=#dae8fc;strokeColor=#6c8ebf;" edge="1" parent="1">
          <mxGeometry width="50" height="50" relative="1" as="geometry">
            <mxPoint x="623" y="580" as="sourcePoint" />
            <mxPoint x="223" y="579.9999999999998" as="targetPoint" />
          </mxGeometry>
        </mxCell>
        <mxCell id="BWcsRzhBrhYCPuVQW7_F-33" value="" style="endArrow=classic;html=1;rounded=0;sketch=1;strokeWidth=3;fontSize=14;fillColor=#dae8fc;strokeColor=#6c8ebf;" edge="1" parent="1">
          <mxGeometry width="50" height="50" relative="1" as="geometry">
            <mxPoint x="623" y="479.99999999999955" as="sourcePoint" />
            <mxPoint x="623" y="560" as="targetPoint" />
            <Array as="points">
              <mxPoint x="643" y="480" />
              <mxPoint x="643" y="560" />
            </Array>
          </mxGeometry>
        </mxCell>
        <mxCell id="BWcsRzhBrhYCPuVQW7_F-34" value="" style="shape=curlyBracket;whiteSpace=wrap;html=1;rounded=1;labelPosition=left;verticalLabelPosition=middle;align=right;verticalAlign=middle;" vertex="1" parent="1">
          <mxGeometry x="140" y="400" width="20" height="200" as="geometry" />
        </mxCell>
        <mxCell id="BWcsRzhBrhYCPuVQW7_F-35" value="&lt;span style=&quot;font-size: 20px;&quot;&gt;preCommit&lt;/span&gt;" style="text;strokeColor=none;fillColor=none;html=1;fontSize=24;fontStyle=1;verticalAlign=middle;align=center;" vertex="1" parent="1">
          <mxGeometry x="23" y="480" width="100" height="40" as="geometry" />
        </mxCell>
        <mxCell id="BWcsRzhBrhYCPuVQW7_F-37" value="事务执行&lt;br&gt;（未提交）" style="text;html=1;fontSize=15;fontStyle=1;verticalAlign=middle;align=center;fillColor=#dae8fc;strokeColor=#6c8ebf;" vertex="1" parent="1">
          <mxGeometry x="443" y="480" width="80" height="40" as="geometry" />
        </mxCell>
        <mxCell id="BWcsRzhBrhYCPuVQW7_F-38" value="判断是否可以执行&lt;br&gt;（未执行）" style="text;html=1;fontSize=15;fontStyle=1;verticalAlign=middle;align=center;labelBackgroundColor=none;fillColor=#fff2cc;strokeColor=#d6b656;" vertex="1" parent="1">
          <mxGeometry x="643" y="260" width="137" height="40" as="geometry" />
        </mxCell>
        <mxCell id="BWcsRzhBrhYCPuVQW7_F-39" value="事务执行&lt;br&gt;（未提交）" style="text;html=1;fontSize=15;fontStyle=1;verticalAlign=middle;align=center;fillColor=#dae8fc;strokeColor=#6c8ebf;" vertex="1" parent="1">
          <mxGeometry x="643" y="500" width="80" height="40" as="geometry" />
        </mxCell>
        <mxCell id="BWcsRzhBrhYCPuVQW7_F-40" value="&lt;font style=&quot;font-size: 15px;&quot;&gt;全部执行成功&lt;/font&gt;" style="text;strokeColor=#6c8ebf;fillColor=#dae8fc;html=1;fontSize=20;fontStyle=1;verticalAlign=middle;align=center;labelBackgroundColor=none;" vertex="1" parent="1">
          <mxGeometry x="223" y="600" width="97" height="40" as="geometry" />
        </mxCell>
        <mxCell id="BWcsRzhBrhYCPuVQW7_F-41" value="全部提交成功" style="text;html=1;fontSize=15;fontStyle=1;verticalAlign=middle;align=center;fillColor=#d5e8d4;strokeColor=#82b366;" vertex="1" parent="1">
          <mxGeometry x="223" y="840" width="97" height="40" as="geometry" />
        </mxCell>
      </root>
    </mxGraphModel>
  </diagram>
</mxfile>
